<?xml version="1.0" encoding="UTF-8" standalone="no"?>
<svg
   xmlns:dc="http://purl.org/dc/elements/1.1/"
   xmlns:cc="http://creativecommons.org/ns#"
   xmlns:rdf="http://www.w3.org/1999/02/22-rdf-syntax-ns#"
   xmlns:svg="http://www.w3.org/2000/svg"
   xmlns="http://www.w3.org/2000/svg"
   xmlns:sodipodi="http://sodipodi.sourceforge.net/DTD/sodipodi-0.dtd"
   xmlns:inkscape="http://www.inkscape.org/namespaces/inkscape"
   sodipodi:docname="flyingpig-drawn2-bw4.svg"
   inkscape:version="0.48.2 r9819"
   id="svg3986"
   version="1.1"
   viewBox="0 0 1056 947"
   height="947pt"
   width="1056pt">
  <metadata
     id="metadata4080">
    <rdf:RDF>
      <cc:Work
         rdf:about="">
        <dc:format>image/svg+xml</dc:format>
        <dc:type
           rdf:resource="http://purl.org/dc/dcmitype/StillImage" />
        <dc:title></dc:title>
      </cc:Work>
    </rdf:RDF>
  </metadata>
  <defs
     id="defs4078" />
  <sodipodi:namedview
     pagecolor="#ffffff"
     bordercolor="#666666"
     borderopacity="1"
     objecttolerance="10"
     gridtolerance="10"
     guidetolerance="10"
     inkscape:pageopacity="0"
     inkscape:pageshadow="2"
     inkscape:window-width="1366"
     inkscape:window-height="714"
     id="namedview4076"
     showgrid="false"
     inkscape:zoom="0.35355339"
     inkscape:cx="778.62466"
     inkscape:cy="574.11005"
     inkscape:window-x="0"
     inkscape:window-y="26"
     inkscape:window-maximized="1"
     inkscape:current-layer="svg3986"
     showguides="true"
     inkscape:guide-bbox="true">
    <inkscape:grid
       type="xygrid"
       id="grid4652" />
  </sodipodi:namedview>
  <path
     d=" M 0.00 0.00 L 1056.00 0.00 L 1056.00 947.00 L 2.27 947.00 C 2.00 935.97 2.50 924.95 2.35 913.92 C 2.53 911.54 1.42 909.44 0.00 907.64 L 0.00 907.10 C 2.40 904.27 1.78 900.78 0.00 897.81 L 0.00 890.77 C 2.07 890.40 2.07 887.65 0.00 887.30 L 0.00 883.20 C 2.31 883.93 2.31 880.50 0.00 881.45 L 0.00 877.45 C 3.11 873.26 3.66 867.08 0.00 863.04 L 0.00 861.63 C 0.82 859.76 1.79 857.93 2.22 855.93 C 2.17 853.42 0.80 851.18 0.00 848.88 L 0.00 832.74 C 1.59 832.13 1.59 831.52 0.00 830.90 L 0.00 827.94 C 1.59 827.31 1.59 826.70 0.00 826.12 L 0.00 0.00 Z"
     id="path3988"
     style="fill:none"
     fill="#fdfdfd" />
  <path
     style="fill:#202020;stroke:none"
     d="M 963.53125 59.625 C 899.39071 67.693602 838.82787 95.854615 782.5625 126.5625 C 727.28646 166.08508 665.68113 194.7725 611.09375 239.875 C 542.719 249.90138 566.71627 335.42551 550.8125 383.46875 C 581.00841 448.32826 474.90901 407.31836 443.5 442.96875 C 411.38252 482.38552 409.28591 437.83876 409.4375 409.5625 C 420.72101 349.69365 375.5813 394.09139 361.15625 417.375 C 325.49566 469.91295 293.79946 409.27031 285.125 373.15625 C 248.6618 369.73831 261.45904 462.14608 212.3125 463.15625 C 181.11244 482.84256 130.29729 456.5415 93.9375 456.5625 C 88.849111 456.565 81.847753 455.22961 79.625 459.40625 C 73.369298 471.16093 76.52789 482.71995 75.625 494.125 C 77.380774 513.47727 78.416724 532.67001 79.9375 544.75 C 80.911155 552.48404 79.624647 550.4002 81.375 554.0625 C 85.08718 561.82959 91.061226 560.34211 94.9375 561.65625 C 113.98055 568.11223 123.65231 576.14769 150.5 577.125 C 159.13709 582.36524 152.54765 590.67573 158.625 595.1875 C 162.01378 597.7033 165.64628 599.92047 169.4375 601.9375 C 204.66775 620.6808 255.60493 619.89293 291.25 636.53125 C 335.84874 651.74445 372.15039 705.80119 371.375 754.71875 C 371.68081 809.54472 379.51016 871.13823 346.1875 918.5625 C 322.728 964.09441 280.05724 1006.7434 284.15625 1060.6875 C 345.16127 1075.7159 362.39323 1007.3672 392 969.4375 C 401.41894 956.41422 441.96931 894.66559 435.90625 919.53125 C 411.42656 974.67628 391.54381 1031.7414 366.6875 1086.7812 C 331.88511 1128.4709 378.67764 1154.9619 416.0625 1139.5625 C 442.78761 1082.8785 479.6025 1032.3024 513.0625 979.59375 C 547.15602 947.8263 520.60785 882.37695 554.46875 858.46875 C 620.20479 884.10841 691.40669 863.48246 757.78125 851.03125 C 785.50145 839.89331 837.08142 829.00319 842.40625 840.09375 C 844.66069 844.78929 846.61553 852.20204 851.21875 851.5 C 878.33675 847.36418 885.3975 866.28064 893.3125 886.46875 C 919.69702 935.0424 968.3901 970.22535 940.375 1027.2188 C 910.17282 1076.7233 995.81194 1117.3639 1006.75 1061.5312 C 1015.9759 1009.4797 1059.8457 950.3805 1029.1875 899.21875 C 1067.8492 883.05185 1069.4159 973.65876 1053.8125 1012.0625 C 1047.619 1057.3312 1024.6981 1152.2384 1100.75 1123.6875 C 1136.7493 1084.0485 1127.7982 1007.371 1166.25 961.3125 C 1203.0033 903.32687 1168.1874 830.82866 1165.1562 767.5625 C 1167.7095 716.22854 1141.8383 656.31123 1147.25 608.84375 C 1154.504 638.46249 1217.2939 653.10354 1205.2812 601.46875 C 1252.6489 604.90151 1244.9781 574.83191 1203.75 577.28125 C 1150.2704 595.12035 1106.8738 561.14958 1067.4688 531.59375 C 1019.7911 509.4201 969.7002 486.8679 918.65625 477.625 C 919.83058 454.9361 978.32981 418.61425 988.96875 380 C 963.1095 359.46807 1005.8455 362.62386 1018.875 343 C 994.87034 320.61486 1036.8126 316.54819 1038.6875 285.4375 C 963.50589 274.9746 1044.5597 270.04228 1061.9375 218.40625 C 1027.2702 201.54204 975.88606 254.18519 932.75 258.9375 C 854.44779 289.24789 964.29323 224.26941 919.96875 195.59375 C 860.64295 211.34908 943.48816 174.57266 951.59375 150.21875 C 957.97653 115.57937 907.47842 131.32758 936.6875 132.25 C 965.44382 160.86047 880.63687 190.89802 863.09375 219.40625 C 856.87129 222.52816 852.58151 224.91725 849.71875 226.65625 C 849.90949 226.62112 847.67897 228.07429 845.65625 229.46875 C 846.23079 228.89843 847.341 228.08832 849.09375 227 C 844.34312 229.54313 835.49922 235.60271 834.5625 235.8125 C 821.8369 242.21795 810.03474 250.2077 797.6875 257.28125 C 794.2263 259.84336 786.38917 266.52441 779.875 272.625 C 779.73813 272.72522 779.59568 272.82231 779.46875 272.9375 C 779.40295 272.99721 779.3446 273.06156 779.28125 273.125 C 749.12428 295.14797 722.3138 303.33904 699.625 315.90625 C 671.50476 359.49909 677.05752 279.31581 699.25 272.53125 C 709.14043 267.79449 736.63493 248.46764 750.40625 237.4375 C 763.57209 231.98466 768.6597 226.95265 776.09375 222.34375 C 798.00247 210.3757 826.80045 194.66899 847.4375 180.8125 C 860.74593 172.11271 873.75198 162.98902 887.625 155.125 C 889.97067 153.2718 896.76147 149.64311 897.03125 147 C 908.87715 140.46305 919.90444 134.84222 926.21875 132.96875 C 923.88153 117.97235 995.84251 77.558251 963.53125 59.625 z M 959.65625 64.59375 C 967.57708 98.788747 906.46355 135.88305 870.65625 158.8125 C 869.12593 159.47178 867.57272 160.07378 865.96875 160.59375 C 853.08032 168.2199 848.11336 175.78867 835.53125 183.875 C 824.91194 190.25031 810.07542 197.83761 799.28125 203.9375 C 787.0129 210.71056 765.04214 222.16457 749.625 233.65625 C 746.17409 235.58726 741.65497 238.24438 735.8125 241.8125 C 702.71734 281.1584 658.03437 264.91544 627.0625 297.15625 C 594.09954 240.40996 653.72428 215.81528 697.4375 190.59375 C 781.32028 136.61869 860.99071 80.122904 959.65625 64.59375 z M 908.59375 201.9375 C 936.32375 200.68804 915.17995 259.42278 882.59375 273.1875 C 834.17409 295.57179 786.05897 320.88421 735.59375 339.90625 C 715.04866 322.14097 751.26335 309.79928 772.5625 283.78125 C 772.9409 283.55626 774.47184 282.11679 776.34375 280.25 C 782.9864 276.32229 790.12818 267.7601 792.71875 265.8125 C 797.63437 261.4502 803.57609 258.53846 809.0625 255 C 813.87857 251.38315 819.69405 249.56436 824.84375 246.53125 C 827.93949 244.48715 830.94509 242.2904 834.1875 240.46875 C 835.48208 239.51776 843.75146 234.08544 848.59375 230.03125 C 847.81404 230.24153 847.18832 230.35973 846.65625 230.4375 C 848.26134 229.74402 849.53953 229.23941 848.59375 230.03125 C 855.66068 228.12535 871.9736 221.04757 881.125 213.6875 C 893.18929 205.72239 902.19452 202.22584 908.59375 201.9375 z M 1048.0625 218.03125 C 1052.1305 217.99437 1054.5733 220.24218 1051.25 227.1875 C 1041.4537 244.68005 1024.1981 256.32154 1008.375 268 C 994.74596 272.6196 985.19665 283.12401 973.90625 291.375 C 958.01131 301.79312 941.00705 310.0822 923.96875 318.53125 C 908.65545 325.21585 894.00666 333.21565 878.03125 338.4375 C 857.87631 346.957 838.07524 356.31931 817.5625 363.875 C 803.73182 369.17393 789.68422 373.92234 776.65625 381.25 C 758.85519 387.53177 741.84529 395.6755 724.625 403.375 C 715.41805 413.61401 699.10741 404.37538 692.8125 396.625 C 688.24756 390.96005 687.48286 378.88343 682.8125 377.65625 C 665.5875 386.714 667.07931 350.48038 678.4375 344.34375 C 689.65835 335.34045 699.49843 325.13161 709.84375 315.40625 C 731.13501 314.7206 727.13344 351.46597 711.875 355 C 707.4725 363.64099 680.74366 373.31387 686.03125 378.6875 C 702.80845 369.83039 718.17227 353.80046 736.25 347.3125 C 750.76214 340.0554 765.47306 333.34556 780.84375 328.1875 C 794.19124 320.8527 808.9408 317.27672 822.71875 310.90625 C 838.73159 304.54563 852.50594 293.71652 868.84375 288.3125 C 885.33028 280.10544 903.19409 275.32685 920.09375 268.09375 C 934.58697 265.74536 949.36733 263.27446 961.6875 254.5625 C 977.07735 250.4185 991.05476 242.3355 1005.4375 235.6875 C 1017.1665 232.77619 1026.7892 225.99792 1037.5625 221.125 C 1040.7441 219.46155 1044.8985 218.05989 1048.0625 218.03125 z M 603.75 250.4375 C 607.18911 250.389 609.36016 253.91221 609.5625 257.53125 C 610.97296 264.31712 614.18274 270.64789 614.46875 277.65625 C 614.70559 282.97164 615.79724 288.18136 617.46875 293.21875 C 619.19111 301.14323 619.9482 309.33611 619.5625 317.4375 C 619.08321 323.87585 616.88795 330.85142 620.28125 336.875 C 622.52154 341.25095 622.34461 346.4942 621.15625 351.15625 C 619.18146 356.9212 616.29577 362.35282 613.8125 367.90625 C 611.93515 372.56161 607.89212 369.95754 606.625 366.40625 C 603.66162 360.91645 601.06625 355.16606 596.6875 350.59375 C 590.73354 343.88855 583.99335 337.33176 575.40625 334.21875 C 570.44282 332.92521 570.0247 328.05034 570.21875 323.78125 C 570.42391 315.73097 568.01466 307.99085 566.3125 300.21875 C 564.75716 293.61442 568.24728 287.478 570.34375 281.4375 C 572.19648 276.2221 575.58926 271.81998 579.125 267.65625 C 581.85199 263.47807 584.64829 258.95014 589.46875 256.96875 C 593.27154 254.81865 597.0617 252.55106 601.1875 251.0625 C 602.10912 250.62889 602.95636 250.44868 603.75 250.4375 z M 659.03125 281 C 664.79174 281.48474 671.53515 283.34388 674.1875 289.03125 C 677.63773 298.95309 676.60584 309.7441 675.09375 319.9375 C 674.15254 325.37981 671.90108 330.51464 668.75 335.03125 C 666.63005 338.71128 665.54327 342.85284 664 346.78125 C 659.85729 347.20681 656.44016 344.0948 652.375 343.875 C 645.77207 342.77685 639.04209 342.48959 632.375 343 C 628.96739 342.41069 627.90076 338.59569 627.59375 335.625 C 626.51065 327.6935 628.22168 319.77351 628.78125 311.875 C 629.92917 305.07326 636.94119 301.84764 640.09375 296.1875 C 645.31336 290.04326 650.4937 282.47389 659.03125 281 z M 1011.25 286.4375 C 1022.4193 286.79113 1040.6165 286.26968 1030.875 298.0625 C 1023.0813 306.30399 1012.6275 311.54581 1003.2188 317.71875 C 991.14313 325.31769 977.22581 328.77449 964.65625 335.34375 C 955.38844 339.19551 944.05487 339.01689 937.9375 348.0625 C 923.76294 352.57866 910.16836 358.78074 895.78125 362.625 C 887.2819 366.5661 879.79052 372.34836 870.59375 374.78125 C 855.63278 379.75417 841.13651 385.91124 826.8125 392.46875 C 815.4132 395.62681 805.1644 401.37883 793.84375 404.625 C 782.68405 406.82029 773.08031 412.53328 764.40625 419.65625 C 754.42111 426.18013 748.84487 406.97843 736.84375 410.90625 C 735.965 403.73959 752.86516 398.54699 760.40625 394.65625 C 777.50427 386.02015 796.42734 381.44896 813.25 372.21875 C 832.18692 367.52644 848.53455 356.01654 867.375 351.09375 C 879.32532 345.8679 891.63739 341.46656 903.1875 335.375 C 917.27706 330.46742 929.96399 322.46519 943.25 315.75 C 955.84019 308.67748 969.22434 303.13531 981.5625 295.6875 C 992.66678 291.46374 998.48217 290.11126 1011.25 286.4375 z M 1004.2188 333.15625 C 1009.0596 332.98108 1011.9204 334.28094 1006 340.65625 C 999.42994 348.07004 989.25302 350.36405 981.3125 355.96875 C 972.5566 361.41244 962.78595 365.56884 955.8125 373.4375 C 945.79721 379.25218 935.78579 385.34449 924.875 389.40625 C 905.49742 398.79115 886.0584 408.1564 867.09375 418.34375 C 856.7797 421.40393 847.4321 426.50971 838.09375 431.71875 C 827.25469 436.84947 815.28474 438.66839 804.34375 443.59375 C 796.16645 446.35737 788.53466 450.63521 780.4375 453.4375 C 773.1485 450.75744 781.11259 432.0416 768.5625 429.625 C 758.98953 423.54684 777.69497 422.38894 781.78125 418.90625 C 790.49417 413.61097 800.92207 412.77945 809.375 407 C 830.16271 395.75549 852.71933 388.33569 875.03125 380.84375 C 885.99816 375.9498 897.13071 371.52106 907.8125 366 C 921.74401 361.06759 935.69914 356.02205 948.625 348.75 C 957.41553 344.14947 967.04319 341.43879 976.125 337.5625 C 983.27241 338.72442 988.28186 336.46115 994.84375 334.25 C 997.71492 333.88032 1001.3142 333.26135 1004.2188 333.15625 z M 572.78125 340.5 C 577.33989 340.45175 580.56965 344.62957 583.46875 347.6875 C 588.8461 355.58357 597.77011 361.28084 600.40625 370.875 C 603.20499 379.28247 603.88478 388.22917 603.375 397.03125 C 603.48825 407.02863 607.33758 417.05719 604.625 427 C 602.89204 431.15688 597.43064 429.61055 594 429 C 584.23136 426.78146 574.10459 426.11857 564.59375 422.8125 C 562.39986 419.95281 564.68588 416.35022 564.9375 413.21875 C 566.5074 404.18959 562.13519 395.67124 560.8125 386.90625 C 559.45916 379.53831 561.35985 376.11405 560.4375 368.6875 C 560.97193 364.50078 561.27715 357.42073 563.03125 353.71875 C 565.3188 349.57221 567.228 345.1743 570.1875 341.4375 C 570.74449 341.15154 571.28411 340.84325 571.84375 340.5625 C 572.15969 340.52025 572.47734 340.50325 572.78125 340.5 z M 639.40625 346.96875 C 645.53737 346.83126 652.29869 348.92446 655.34375 354.625 C 658.53276 360.21799 659.32024 366.77034 660.25 373.03125 C 660.94168 379.28423 660.93206 386.44133 656.3125 391.3125 C 652.61469 395.507 648.06545 398.85014 644.6875 403.34375 C 641.29048 407.18439 637.5048 410.93736 635.8125 415.90625 C 633.56259 420.6778 631.68896 425.62099 629.5625 430.4375 C 627.93665 434.178 623.57285 433.62171 620.28125 433.15625 C 616.12171 433.06662 611.52524 430.98501 613 426.125 C 613.34166 419.27812 614.12749 412.41603 613.40625 405.5625 C 612.75636 398.12905 611.7304 390.32396 614.6875 383.21875 C 617.29451 375.55689 622.48081 369.16266 625.75 361.8125 C 629.39832 356.48478 633.56806 351.54237 638.1875 347.03125 C 638.58946 347.00263 638.99751 346.97787 639.40625 346.96875 z M 977.25 375.4375 C 978.17769 375.39513 979.1151 375.44 980.03125 375.5625 C 982.37895 383.67905 972.22859 390.1565 969.46875 397.53125 C 961.3467 414.09785 948.46636 427.56856 935.4375 440.34375 C 924.4793 454.5419 906.79364 460.3371 892.21875 469.84375 C 884.26169 474.56671 875.84 479.29431 866.34375 479.53125 C 858.23711 481.34169 850.06808 482.83024 841.9375 484.5625 C 833.88271 487.00328 821.25134 491.21996 815.21875 488.90625 C 816.76261 481.77773 824.00459 476.19225 822.84375 468.5625 C 821.65401 461.3381 813.50893 459.95031 807.4375 460.21875 C 798.26812 460.53445 789.83319 464.59544 781 466.59375 C 785.26565 458.171 796.1167 458.14515 803.28125 453.34375 C 817.72931 446.93259 833.31823 442.89428 846.78125 434.40625 C 856.82295 429.96531 866.91967 425.60386 877.03125 421.375 C 888.54379 414.87474 900.51177 409.29532 912.125 403 C 920.74366 400.2556 927.03211 393.03199 935.90625 390.84375 C 943.35227 388.1591 951.01672 385.89411 957.9375 381.96875 C 964.04071 379.69783 970.75618 375.73379 977.25 375.4375 z M 279.6875 385.125 C 280.09395 385.12125 280.4875 385.14687 280.875 385.15625 C 283.1875 391.64375 284.25625 398.59375 287.71875 404.65625 C 290.99375 410.40625 290.8625 417.44375 294.5 423.03125 C 295.95 425.90625 298.675 428.475 298.4375 431.9375 C 295.675 434.925 291.1375 434.11875 287.5 434.65625 C 276.325 435.30625 267.2875 443.15 256.4375 445 C 257.55 440.0125 259.5625 435.2375 260.375 430.1875 C 261.5625 422.425 265.175 415.425 268.5625 408.4375 C 271.95 401.4375 272.65 393.35625 276.6875 386.65625 C 277.24063 385.3625 278.46816 385.1373 279.6875 385.125 z M 678.71875 388.5 C 681.80931 389.29424 685.16394 392.31206 684.03125 395.78125 C 683.16405 402.90148 678.4532 408.65646 674.0625 414 C 670.98836 418.98286 669.67877 424.90068 665.9375 429.5 C 661.75053 435.60583 656.75331 441.11985 652.6875 447.3125 C 648.7004 451.5943 642.31735 451.65335 636.90625 451.1875 C 633.81699 450.10371 635.77349 446.28649 635.625 443.90625 C 635.28979 438.10236 636.82924 432.26796 638.90625 426.875 C 642.59211 417.11621 648.06376 407.62711 656.65625 401.40625 C 659.87698 398.84545 663.2362 396.49197 666.4375 393.90625 C 669.96189 391.07045 674.26654 389.23701 678.71875 388.5 z M 397.34375 393.84375 C 408.91638 393.2789 395.51643 448.08921 405.84375 460.03125 C 413.06942 477.95271 382.1294 548.70085 410.21875 503.65625 C 414.9542 455.68342 468.44794 436.87225 509.78125 431.15625 C 547.19839 428.23427 611.71135 423.84425 629.9375 456.25 C 616.31676 485.62361 606.44001 554.80426 657.71875 543.8125 C 694.5526 559.35431 741.01338 551.67573 772.28125 520.09375 C 825.16171 512.48011 873.80176 471.826 927.78125 487.75 C 978.53426 501.11313 1028.6856 519.19031 1074.1562 545.71875 C 1099.2879 568.14803 1126.5843 590.22658 1158.375 593.3125 C 1100.6365 594.96165 1153.9394 668.70391 1148.0938 704.03125 C 1152.3037 751.86042 1153.4559 800.68563 1163.1562 847.84375 C 1166.2819 883.46788 1175.6202 925.87611 1148.8438 956.5 C 1124.644 994.49046 1119.5256 1040.9153 1103.5 1082.5625 C 1110.9916 1121.7448 1040.5652 1112.4147 1064.25 1072.8438 C 1060.9762 1025.813 1077.1538 981.06444 1078.4062 934.78125 C 1081.1871 884.86097 1016.7237 877.04876 993.65625 840.375 C 961.07404 824.4364 941.74938 751.2882 911.03125 758.625 C 954.28297 802.17813 863.80364 799.08051 836.75 817.5625 C 770.74499 839.145 701.81663 850.72356 633.125 858.03125 C 601.34216 858.99696 549.30235 856.51111 547.78125 823.53125 C 523.14437 859.87658 525.00281 910.12982 514.1875 950.3125 C 482.55531 1009.3597 439.04934 1060.1736 411.375 1121.4062 C 394.52009 1135.4488 351.44481 1123.1169 378.6875 1095.5625 C 394.92305 1047.9747 419.11786 1003.9064 433.375 955.75 C 450.44313 918.94634 473.45476 875.19959 450.28125 835.65625 C 429.62735 793.13599 410.44858 751.08844 381.3125 713.59375 C 370.53964 693.22074 305.25754 633.54364 360.65625 653.125 C 387.7985 676.4046 384.29198 646.82963 379.21875 627.625 C 402.13173 642.54202 428.41146 643.08462 410.4375 610.25 C 432.22836 622.15784 466.15542 613.32759 433.4375 591.5625 C 416.8831 568.23314 405.88972 585.20297 426.5 602.75 C 404.85229 589.98129 387.7918 597.85523 401.09375 624.8125 C 378.31914 607.38072 359.66654 612.42237 366.59375 644.125 C 324.77316 635.10211 282.27352 623.82074 240.40625 612.8125 C 220.72739 607.77949 150.4534 596.21164 171.78125 579.9375 C 195.85475 583.98119 253.50516 601.9817 256.5625 589.6875 C 234.35218 562.44928 213.76466 530.87432 198.9375 502.78125 C 171.16754 528.24285 229.90744 596.14503 169.875 569.4375 C 145.84154 566.7336 128.50324 565.69296 109.15625 558.25 C 94.093731 552.45531 90.64404 554.06916 87.84375 549.9375 C 86.920111 548.57473 86.813967 548.9841 86.75 547.28125 C 86.677212 545.34344 86.404971 542.28243 86.15625 540.21875 C 84.504625 526.51491 81.96386 501.76126 83.59375 483.9375 C 82.852324 478.9307 83.998935 471.23584 85.375 468.40625 C 87.29491 464.45836 93.032019 466.42341 97.96875 465.625 C 117.0557 462.53811 153.89505 479.23426 171.25 477.09375 C 211.44019 479.82005 251.23076 460.73913 288.4375 446.34375 C 304.00182 442.9889 350.30474 443.39967 327.6875 468.375 C 349.50113 476.01695 363.86016 409.71441 388.03125 400.46875 C 392.19596 395.94248 395.20068 393.94835 397.34375 393.84375 z M 696.875 410.625 C 698.62183 410.64237 700.29609 411.13459 701.5 412.53125 C 705.05545 418.20965 705.52381 425.23846 704.46875 431.71875 C 703.4924 437.13039 702.79976 442.86659 699.40625 447.40625 C 696.84525 451.11758 693.89746 454.66819 692.4375 459 C 688.64795 467.05574 680.68188 472.14061 672.65625 475.3125 C 668.2995 472.37367 668.63715 466.44589 665.6875 462.5 C 663.56309 458.75479 659.83661 455.14364 660.5625 450.46875 C 661.8511 446.91074 664.92465 444.26446 667.15625 441.25 C 670.53534 437.40958 672.71145 432.75074 675.59375 428.5625 C 679.79111 421.97163 684.41246 415.01656 691.75 411.625 C 693.28446 411.07271 695.12817 410.60764 696.875 410.625 z M 735.09375 420.0625 C 737.32694 420.16675 739.46124 421.1814 740.78125 423.0625 C 743.52144 426.48361 744.57913 431.28871 743.53125 435.53125 C 741.3276 441.37026 737.17299 446.15834 733.40625 451.03125 C 726.85468 458.57594 720.54549 466.3394 713.84375 473.75 C 711.49058 475.70545 709.08748 473.14444 707.625 471.40625 C 704.3878 468.22896 700.83742 465.00038 699.3125 460.59375 C 703.45626 456.6063 707.994 452.44961 709.375 446.625 C 711.52491 439.88103 714.31845 433.09471 719.25 427.875 C 723.89794 424.81389 728.25357 420.39806 734.125 420.09375 C 734.44591 420.072 734.77472 420.04762 735.09375 420.0625 z M 389.4375 423.875 C 388.38886 423.85825 387.32145 424.29985 386.53125 425.3125 C 382.45336 429.52988 377.46117 432.94241 374.28125 437.96875 C 371.12585 444.30985 366.49515 450.0181 364.78125 457 C 363.73422 464.15683 360.09886 470.51367 357.28125 477.0625 C 356.265 479.51165 354.64522 482.46304 356.6875 484.875 C 358.01144 487.6777 361.65411 487.05859 363.4375 485.125 C 365.62771 480.04658 367.3301 474.7257 369.9375 469.8125 C 372.37695 465.68176 374.4192 461.35849 375.96875 456.8125 C 377.71852 453.67104 378.28534 447.73805 382.84375 448.09375 C 383.00731 455.90219 380.28454 463.4866 380.78125 471.3125 C 380.70887 479.27174 382.14221 487.13671 381.90625 495.09375 C 382.2353 497.91856 381.2224 501.9326 383.46875 503.875 C 387.12869 507.05418 389.6405 501.31449 389.71875 498.15625 C 389.6935 488.81049 390.693 479.50329 390.65625 470.15625 C 390.1525 463.45757 391.53359 456.85192 392.9375 450.34375 C 394.61065 443.2723 394.41337 435.9463 393.53125 428.78125 C 394.04026 426.08435 391.74453 423.91184 389.4375 423.875 z M 760.4375 443.09375 C 761.21953 443.10125 762.01281 443.19013 762.8125 443.34375 C 766.3695 446.96745 765.56521 452.51796 764.28125 456.9375 C 762.9629 462.03409 761.01616 466.93811 759.5625 472 C 757.79671 477.73966 755.38065 483.34648 751.59375 488.0625 C 749.1119 491.63346 746.78816 495.62681 742.875 497.8125 C 738.53435 498.74115 734.02587 496.15549 729.78125 498.03125 C 726.70859 499.11687 723.77924 501.06574 720.40625 500.96875 C 716.8565 499.91254 717.89482 495.47469 717.4375 492.65625 C 717.19714 489.07496 716.47879 485.5042 716.875 481.90625 C 720.74275 476.72556 726.06681 472.86021 730.0625 467.78125 C 735.26856 461.66594 739.45738 454.68858 745.5 449.3125 C 749.93533 446.34758 754.96337 443.04479 760.4375 443.09375 z M 650.6875 461.28125 C 652.79692 461.16437 654.88132 461.85505 656.25 463.65625 C 659.10213 466.76763 661.62897 470.39898 662.75 474.5 C 664.40396 485.9827 659.756 497.18366 654.3125 507.03125 C 650.34221 513.8142 645.02587 520.226 643.78125 528.21875 C 643.32844 531.27062 642.8822 535.81331 638.5625 535.09375 C 634.34425 534.83261 626.90697 521.848 629.125 518.5625 C 629.58356 517.83561 629.96548 517.52738 630.25 517.4375 C 630.00018 517.24109 629.68392 516.94192 629.21875 516.3125 C 626.73266 510.74455 629.29663 506.38409 629.5625 499.9375 C 629.448 493.07683 630.51561 486.18233 632.5 479.625 C 634.58479 473.34375 639.58252 468.78683 644.28125 464.40625 L 644.625 464.09375 L 644.96875 463.75 C 646.44864 462.32362 648.57807 461.39815 650.6875 461.28125 z M 805 468.125 C 807.27773 468.12 809.45078 468.675 811.25 470.25 C 812.4625 475.05 809.9 479.6875 807.25 483.5 C 803.525 488.95 798.3875 493.2625 792.625 496.4375 C 784.6125 500.7625 778.28125 507.75 769.84375 511.3125 C 764.96875 512 760.63125 507.675 758.71875 503.5625 C 756.91875 498.975 761.575 495.9125 764.0625 492.8125 C 772.3875 482.3125 784.18125 475.15625 796.40625 470.03125 C 798.98672 469.075 802.07148 468.13104 805 468.125 z M 689.53125 478.25 C 693.10474 478.1355 696.7625 479.10469 700.21875 479.96875 C 705.18125 483.14375 705.35 489.86875 705.875 495.15625 C 705.1875 503.24375 700.86875 510.7375 695.15625 516.375 C 689.96875 521.6125 686.36875 529.4125 678.46875 531 C 672.44375 532.3125 665.8875 535.4 659.875 532.5625 C 657.3125 528.525 658.9625 523.3125 660.375 519.125 C 662.5 513.3 664.75 507.40625 669.125 502.84375 C 673.5125 498.24375 672.05625 490.91875 676.28125 486.21875 C 679.38125 482.61875 683.7 480.2625 688 478.375 C 688.50625 478.311 689.02075 478.26638 689.53125 478.25 z M 299.5 492.15625 C 296.79933 492.21925 294.13394 492.87377 291.8125 494.375 C 286.58696 497.62302 279.99424 499.33163 276.34375 504.65625 C 274.7274 507.48964 273.01805 510.24919 271.53125 513.15625 C 269.79489 516.49582 268.88665 520.75784 270.90625 524.1875 C 273.73199 525.52851 276.61292 523.67346 279.34375 523 C 282.99041 521.93016 286.83469 522.20599 290.5625 521.6875 C 293.801 521.32888 296.92433 519.45789 298.3125 516.4375 C 300.25319 512.1195 298.54815 507.35774 299 502.84375 C 301.99009 502.13617 305.06791 501.84155 308.0625 501.15625 C 310.43127 501.30686 310.06786 498.62366 310.21875 496.96875 C 310.31075 495.29312 309.2728 493.5658 307.5 493.375 C 304.96394 492.61926 302.20068 492.09325 299.5 492.15625 z M 728.21875 513.375 C 733.38196 513.33225 738.55469 513.67188 743.65625 514.375 C 747.66875 514.725 751.1625 517.2625 753.25 520.625 C 754.3 523.4125 753.2125 526.59375 750.6875 528.15625 C 744.95 532.09375 738.1 533.8875 731.875 536.875 C 722.4 541.45 712.03125 543.525 701.78125 545.5625 C 696.53125 547.025 691.2375 544.25 687.125 541.1875 C 689.575 531.45 698.25 525.03125 706.6875 520.53125 C 710.8625 518.48125 714.64375 515.6375 718.96875 513.875 C 722.03437 513.55625 725.12083 513.40062 728.21875 513.375 z M 199.53125 522.75 C 209.5955 538.31359 216.02834 549.28036 225.375 561.96875 C 228.2889 568.36388 235.60487 570.85301 235.53125 578.34375 C 234.25915 581.46671 225.67499 580.46258 223.1875 579.71875 C 220.1008 578.90468 217.19881 576.9661 214.59375 574.6875 C 207.39279 565.76219 203.54318 553.268 200.9375 540.90625 C 200.15995 537.2363 198.05436 532.82861 199.53125 522.75 z M 1178.7188 593.71875 C 1176.4436 596.65625 1173.5814 599.2625 1169.9062 600.1875 C 1172.3313 597.4125 1175.4936 595.45625 1178.7188 593.71875 z M 1191.4062 606.65625 C 1195.5697 606.19066 1197.9648 613.52344 1195 616.5 C 1191.8875 614.5 1188.5375 610.7875 1190.5625 606.875 C 1190.8547 606.77112 1191.1289 606.68729 1191.4062 606.65625 z M 1182.5 608.625 C 1182.2125 610.3375 1182.0125 612.09375 1181.375 613.71875 C 1180.7875 613.98125 1179.5875 614.5 1179 614.75 C 1178.8375 612.0625 1180.1 609.85 1182.5 608.625 z M 1170.7812 621.59375 C 1173.3564 622.51875 1176.0062 623.66875 1177.5312 626.09375 C 1174.5938 625.79375 1172.2939 624.04375 1170.7812 621.59375 z M 378.6875 729.96875 C 384.05 733.93125 387.55625 739.71875 390.84375 745.40625 C 400.45625 759.45625 406.1875 775.675 414.6875 790.375 C 419.3875 798.175 423.3875 806.375 428.5625 813.875 C 431.8625 818.375 430.95625 824.3125 433.34375 829.1875 C 436.25625 835.4875 440.74375 841.50625 440.78125 848.71875 C 439.98125 859.08125 436.9 869.0625 433.875 878.9375 C 432.2625 890.65 428.60625 902.69375 420.21875 911.40625 C 415.39375 916.69375 411.44375 922.7 406.71875 928.0625 C 397.89375 937.8375 390.54375 948.75 383.28125 959.6875 C 377.11875 967.1125 372.53125 975.63125 367.34375 983.71875 C 363.71875 989.54375 358.475 994.10625 354.8125 999.90625 C 351.3375 1004.9313 348.75 1010.4938 345.8125 1015.8438 C 343.075 1020.8188 338.675 1024.5565 335.75 1029.4062 C 332.4625 1034.7314 329.025 1040.1 324.25 1044.25 C 322.5375 1046.05 319.83125 1045.5875 317.59375 1045.875 C 310.98125 1046 304.28125 1047.625 297.71875 1046.125 C 296.81875 1037.6375 301.3 1030.05 303.8125 1022.25 C 308.3375 1009.65 315.4 998.2125 321.3125 986.25 C 328.5 969.9625 339.50625 955.8 347.40625 939.875 C 350.13125 934.025 354.78125 929.20625 356.78125 923.03125 C 359.99375 911.31875 370.5625 903.51875 374.5 892.15625 C 379.625 875.18125 378.5625 857.275 380.9375 839.875 C 381.775 824.475 383.5125 809.14375 383.4375 793.71875 C 383.1 782.90625 382.06875 772.125 381.96875 761.3125 C 380.85625 750.875 378.775 740.49375 378.6875 729.96875 z M 938.03125 799.3125 C 938.76835 799.33525 939.4639 799.6666 940.09375 800.4375 C 942.48869 803.51308 948.56769 807.749 945.1875 811.875 C 939.2327 816.03148 931.56565 816.03273 924.84375 818.28125 C 916.17789 821.70065 906.60213 822.12151 898.15625 826.15625 C 884.1297 829.98647 870.52114 835.52556 856.15625 838.03125 C 851.66532 838.42112 847.13661 834.85658 846.84375 830.28125 C 848.93809 826.15824 854.14174 826.02857 858.0625 824.8125 C 862.54658 823.48166 867.24229 823.37776 871.84375 822.8125 C 876.92084 821.73156 881.99636 820.41178 886.8125 818.46875 C 891.3776 816.17051 895.78716 813.2464 901 812.6875 C 907.21607 811.24588 912.7372 807.82754 919 806.5 C 923.09056 805.3562 927.23686 804.23015 931.0625 802.34375 C 933.25981 801.7867 935.81994 799.2441 938.03125 799.3125 z M 957.09375 824.375 C 959.33551 824.30175 961.5 825.04375 962.90625 827.125 C 969.19375 834.9375 976.875 841.41875 983.3125 849.09375 C 987.2375 853.48125 992.15625 856.90625 995.90625 861.46875 C 999.14375 865.95625 1002.2061 870.7 1003.9688 876 C 1008.7563 890.7625 1017.7437 903.625 1022.5938 918.375 C 1024.2438 924.6 1028.3185 929.94375 1029.7188 936.21875 C 1028.0311 941.14375 1025.45 945.7375 1024.375 950.875 C 1023.1625 956.825 1020.4375 962.3875 1019.375 968.375 C 1017.825 975.725 1016.1125 983.04375 1014.125 990.28125 C 1012.475 996.25625 1009.125 1001.5375 1007.125 1007.375 C 1004.7125 1014.45 1000.5313 1020.8625 999.21875 1028.3125 C 997.09375 1035.275 994.5125 1042.0875 992.875 1049.1875 C 990.8 1054.35 993.19375 1059.9375 991.78125 1065.1875 C 988.06875 1066.5875 984.3625 1068.3188 980.4375 1068.9688 C 973.6375 1069.0186 966.89375 1067.7565 960.34375 1066.0312 C 958.11875 1065.5312 957.325 1063.1 957.0625 1061.125 C 956.4375 1053.8125 957.6125 1046.4375 956.8125 1039.125 C 955.325 1027.575 959.41875 1016.3436 961.84375 1005.2188 C 963.98125 996.53115 965.56875 987.59375 969.59375 979.53125 C 972.01875 972.83125 968.6625 965.8625 966.8125 959.4375 C 964.6 951.6625 957.675 946.9375 952.8125 940.9375 C 945.2 931.9125 936.6625 923.775 927.75 916.0625 C 924.225 912.9375 920.45625 909.9375 917.96875 905.875 C 913.55625 898.8875 908.58125 892.075 906.03125 884.125 C 904.09375 879.125 902.3375 873.925 899.0625 869.625 C 894.6 863.45 890.175 857.08125 887.8125 849.78125 C 887.0625 847.28125 889.225 844.9375 891.4375 844.125 C 902.2625 839.2875 913.70625 835.8375 925.40625 833.875 C 934.45625 831.8125 943.58125 829.7375 952.03125 825.75 C 953.5625 824.97344 955.35016 824.43199 957.09375 824.375 z "
     transform="scale(0.8,0.8)"
     id="path5173" />
</svg>
